# xmcd CD database file
#
# Track frame offsets:
#	150
#	37858
#	144489
#	184957
#
# Disc length: 4415 seconds
#
# Revision: 0
# Processed by: cddbd v1.5.2PL0 Copyright (c) Steve Scherf et al.
# Submitted via: CDex 1.70beta2
#
DISCID=2f113d04
DTITLE=Leland Burr - Beeland Lure
DYEAR=1999
DGENRE=New Age
TTITLE0=Cusp Of Learning
TTITLE1=Recesses
TTITLE2=A Maze Of Hedges
TTITLE3=The Soothing Edge
EXTD=YEAR: 1999
EXTT0=
EXTT1=
EXTT2=
EXTT3=
PLAYORDER=
